STARTFONT 2.1
FONT -FontForge-Earth 2073-Book-R-Normal--18-170-75-75-P-116-ISO10646-1
SIZE 17 75 75
FONTBOUNDINGBOX 22 19 -1 -4
COMMENT "Generated by fontforge, http://fontforge.sourceforge.net"
COMMENT "Earth 2073, (c) Lukas Krakora, krraaa@yahoo.com, DO NOT USE THIS FONT COMMERCIALY WITHOUT LICENSE! CONTACT ME ON MY EMAIL krraaa@yahoo.com TO GET ONE."
STARTPROPERTIES 39
FOUNDRY "FontForge"
FAMILY_NAME "Earth 2073"
WEIGHT_NAME "Book"
SLANT "R"
SETWIDTH_NAME "Normal"
ADD_STYLE_NAME ""
PIXEL_SIZE 18
POINT_SIZE 170
RESOLUTION_X 75
RESOLUTION_Y 75
SPACING "P"
AVERAGE_WIDTH 116
CHARSET_REGISTRY "ISO10646"
CHARSET_ENCODING "1"
FONTNAME_REGISTRY ""
CHARSET_COLLECTIONS "ISO8859-2 ISO10646-1"
FONT_NAME "Earth2073"
FACE_NAME "Earth 2073"
COPYRIGHT "Earth 2073, (c) Lukas Krakora, krraaa@yahoo.com, DO NOT USE THIS FONT COMMERCIALY WITHOUT LICENSE! CONTACT ME ON MY EMAIL krraaa@yahoo.com TO GET ONE."
FONT_VERSION "1.00 March 1, 2017, initial release"
FONT_ASCENT 14
FONT_DESCENT 4
UNDERLINE_POSITION -3
UNDERLINE_THICKNESS 2
X_HEIGHT 7
CAP_HEIGHT 10
RAW_ASCENT 799
RAW_DESCENT 200
NORM_SPACE 11
RELATIVE_WEIGHT 40
RELATIVE_SETWIDTH 50
SUPERSCRIPT_X 0
SUPERSCRIPT_Y 8
SUPERSCRIPT_SIZE 11
SUBSCRIPT_X 0
SUBSCRIPT_Y 2
SUBSCRIPT_SIZE 11
AVG_LOWERCASE_WIDTH 118
AVG_UPPERCASE_WIDTH 120
ENDPROPERTIES
CHARS 233
STARTCHAR space
ENCODING 32
SWIDTH 585 0
DWIDTH 11 0
BBX 1 1 0 0
BITMAP
00
ENDCHAR
STARTCHAR exclam
ENCODING 33
SWIDTH 360 0
DWIDTH 7 0
BBX 3 12 1 0
BITMAP
40
E0
E0
E0
E0
E0
E0
40
00
C0
E0
E0
ENDCHAR
STARTCHAR quotedbl
ENCODING 34
SWIDTH 402 0
DWIDTH 7 0
BBX 5 5 0 6
BITMAP
D8
D8
D8
D8
10
ENDCHAR
STARTCHAR numbersign
ENCODING 35
SWIDTH 813 0
DWIDTH 15 0
BBX 12 11 0 0
BITMAP
0C60
1CE0
7FF0
3DE0
18C0
30C0
3180
FFC0
FFE0
7180
2100
ENDCHAR
STARTCHAR dollar
ENCODING 36
SWIDTH 672 0
DWIDTH 12 0
BBX 10 15 0 -2
BITMAP
0C00
0C00
7F80
FF80
CC80
CC00
FC00
7F80
0D80
0CC0
CCC0
FF80
7F00
0C00
0800
ENDCHAR
STARTCHAR percent
ENCODING 37
SWIDTH 739 0
DWIDTH 13 0
BBX 11 11 0 0
BITMAP
F040
D8C0
D980
F300
7600
0C00
1DC0
3BE0
7360
63E0
C1C0
ENDCHAR
STARTCHAR ampersand
ENCODING 38
SWIDTH 650 0
DWIDTH 12 0
BBX 9 11 0 0
BITMAP
7F00
FF80
C100
E000
7000
F800
CF80
C780
C380
FF80
7F00
ENDCHAR
STARTCHAR quotesingle
ENCODING 39
SWIDTH 260 0
DWIDTH 5 0
BBX 2 4 0 7
BITMAP
C0
C0
C0
C0
ENDCHAR
STARTCHAR parenleft
ENCODING 40
SWIDTH 406 0
DWIDTH 7 0
BBX 5 15 0 -2
BITMAP
38
70
60
C0
C0
C0
C0
C0
C0
C0
C0
C0
60
70
38
ENDCHAR
STARTCHAR parenright
ENCODING 41
SWIDTH 426 0
DWIDTH 8 0
BBX 5 15 0 -2
BITMAP
E0
F0
38
18
18
18
18
18
18
18
18
18
30
70
E0
ENDCHAR
STARTCHAR asterisk
ENCODING 42
SWIDTH 667 0
DWIDTH 12 0
BBX 7 7 1 4
BITMAP
18
18
FE
FE
3C
7E
44
ENDCHAR
STARTCHAR plus
ENCODING 43
SWIDTH 654 0
DWIDTH 12 0
BBX 7 8 1 1
BITMAP
10
18
38
FE
FE
38
10
10
ENDCHAR
STARTCHAR comma
ENCODING 44
SWIDTH 354 0
DWIDTH 6 0
BBX 3 5 1 -3
BITMAP
E0
E0
E0
40
C0
ENDCHAR
STARTCHAR hyphen
ENCODING 45
SWIDTH 662 0
DWIDTH 12 0
BBX 7 2 1 4
BITMAP
FE
FE
ENDCHAR
STARTCHAR period
ENCODING 46
SWIDTH 343 0
DWIDTH 6 0
BBX 3 3 1 0
BITMAP
C0
E0
C0
ENDCHAR
STARTCHAR slash
ENCODING 47
SWIDTH 583 0
DWIDTH 11 0
BBX 8 15 0 -2
BITMAP
03
03
06
06
0C
0C
18
18
30
30
60
60
C0
C0
80
ENDCHAR
STARTCHAR zero
ENCODING 48
SWIDTH 674 0
DWIDTH 12 0
BBX 10 11 0 0
BITMAP
7F00
FF80
C180
C180
C1C0
C0C0
C0C0
C180
C180
FF80
7F00
ENDCHAR
STARTCHAR one
ENCODING 49
SWIDTH 441 0
DWIDTH 8 0
BBX 5 11 0 0
BITMAP
18
38
78
F8
98
18
18
18
18
18
18
ENDCHAR
STARTCHAR two
ENCODING 50
SWIDTH 662 0
DWIDTH 12 0
BBX 9 11 0 0
BITMAP
7F00
FF80
0180
0180
0F80
7F00
F000
C000
C000
FF80
7F80
ENDCHAR
STARTCHAR three
ENCODING 51
SWIDTH 652 0
DWIDTH 12 0
BBX 9 11 0 0
BITMAP
7F00
FF80
0180
0180
0F80
0F80
0180
0180
0180
FF80
7F00
ENDCHAR
STARTCHAR four
ENCODING 52
SWIDTH 681 0
DWIDTH 12 0
BBX 10 11 0 0
BITMAP
0700
0F80
1D80
3980
3180
6180
E380
FFC0
7F80
0180
0100
ENDCHAR
STARTCHAR five
ENCODING 53
SWIDTH 661 0
DWIDTH 12 0
BBX 9 11 0 0
BITMAP
FF80
FF00
C000
C000
FF00
E780
0080
0080
4180
FF80
3F00
ENDCHAR
STARTCHAR six
ENCODING 54
SWIDTH 657 0
DWIDTH 12 0
BBX 9 11 0 0
BITMAP
7F00
FF80
C000
C000
FF00
FF80
C180
C180
C180
FF80
3F00
ENDCHAR
STARTCHAR seven
ENCODING 55
SWIDTH 657 0
DWIDTH 12 0
BBX 9 11 0 0
BITMAP
FF80
7F80
0180
0300
0600
0E00
0C00
1800
3800
3000
6000
ENDCHAR
STARTCHAR eight
ENCODING 56
SWIDTH 677 0
DWIDTH 12 0
BBX 10 11 0 0
BITMAP
3F00
7F00
6180
6180
7F00
7F80
C1C0
C1C0
C180
FF80
3F00
ENDCHAR
STARTCHAR nine
ENCODING 57
SWIDTH 662 0
DWIDTH 12 0
BBX 9 11 0 0
BITMAP
7F00
FF80
C180
C180
C180
7F80
3F80
0180
0180
FF80
7F00
ENDCHAR
STARTCHAR colon
ENCODING 58
SWIDTH 358 0
DWIDTH 6 0
BBX 3 8 1 0
BITMAP
40
E0
E0
00
00
C0
E0
E0
ENDCHAR
STARTCHAR semicolon
ENCODING 59
SWIDTH 362 0
DWIDTH 7 0
BBX 3 11 1 -3
BITMAP
40
E0
E0
00
00
40
E0
E0
60
40
C0
ENDCHAR
STARTCHAR less
ENCODING 60
SWIDTH 780 0
DWIDTH 14 0
BBX 11 9 0 0
BITMAP
0060
03E0
1F80
7C00
F000
FC00
1F80
03E0
0060
ENDCHAR
STARTCHAR equal
ENCODING 61
SWIDTH 624 0
DWIDTH 11 0
BBX 8 6 1 2
BITMAP
0C
FF
7E
00
FF
7E
ENDCHAR
STARTCHAR greater
ENCODING 62
SWIDTH 770 0
DWIDTH 14 0
BBX 11 9 0 0
BITMAP
C000
F800
3F00
07C0
01E0
07E0
1F00
FC00
E000
ENDCHAR
STARTCHAR question
ENCODING 63
SWIDTH 763 0
DWIDTH 14 0
BBX 9 11 1 0
BITMAP
7F00
FF80
8180
0180
0F80
1F00
1C00
0000
0800
1C00
1C00
ENDCHAR
STARTCHAR at
ENCODING 64
SWIDTH 1035 0
DWIDTH 19 0
BBX 14 13 1 -2
BITMAP
1FF0
7FF8
E38C
DFEC
D87C
C7FC
DFFC
F87C
D87C
DFFC
CFFC
7FF8
3FF0
ENDCHAR
STARTCHAR A
ENCODING 65
SWIDTH 649 0
DWIDTH 12 0
BBX 9 11 0 0
BITMAP
1C00
1C00
1E00
3600
3600
3300
7F00
7F00
6380
C180
C180
ENDCHAR
STARTCHAR B
ENCODING 66
SWIDTH 664 0
DWIDTH 12 0
BBX 9 11 0 0
BITMAP
FF00
FF80
C180
C180
FF80
FF80
C180
C180
C180
FF80
FF00
ENDCHAR
STARTCHAR C
ENCODING 67
SWIDTH 677 0
DWIDTH 12 0
BBX 10 11 0 0
BITMAP
7F80
7F80
C1C0
C080
C000
C000
C000
C080
E1C0
7F80
7F80
ENDCHAR
STARTCHAR D
ENCODING 68
SWIDTH 671 0
DWIDTH 12 0
BBX 9 11 0 0
BITMAP
FF00
FF80
C180
C180
C180
C180
C180
C180
C180
FF80
FF00
ENDCHAR
STARTCHAR E
ENCODING 69
SWIDTH 676 0
DWIDTH 12 0
BBX 9 11 0 0
BITMAP
FF80
FF80
C000
C000
FE00
FF00
C000
C000
C000
FF80
FF80
ENDCHAR
STARTCHAR F
ENCODING 70
SWIDTH 671 0
DWIDTH 12 0
BBX 9 11 0 0
BITMAP
FF80
FF80
C000
C000
FF00
FF00
C000
C000
C000
C000
C000
ENDCHAR
STARTCHAR G
ENCODING 71
SWIDTH 674 0
DWIDTH 12 0
BBX 10 11 0 0
BITMAP
7F00
7F80
C080
C000
C700
C780
C1C0
C0C0
E180
7F80
3F00
ENDCHAR
STARTCHAR H
ENCODING 72
SWIDTH 684 0
DWIDTH 12 0
BBX 10 11 0 0
BITMAP
C0C0
C0C0
C0C0
C1C0
FFC0
FFC0
C1C0
C0C0
C0C0
C0C0
C080
ENDCHAR
STARTCHAR I
ENCODING 73
SWIDTH 530 0
DWIDTH 10 0
BBX 7 11 0 0
BITMAP
FE
FE
18
18
18
18
18
10
18
FE
FE
ENDCHAR
STARTCHAR J
ENCODING 74
SWIDTH 672 0
DWIDTH 12 0
BBX 9 11 0 0
BITMAP
3F80
1F80
0180
0180
0180
0080
0080
C080
C180
FF80
7F00
ENDCHAR
STARTCHAR K
ENCODING 75
SWIDTH 662 0
DWIDTH 12 0
BBX 9 11 0 0
BITMAP
C180
C380
C700
DE00
FC00
F800
FC00
CE00
C700
C380
C180
ENDCHAR
STARTCHAR L
ENCODING 76
SWIDTH 664 0
DWIDTH 12 0
BBX 9 11 0 0
BITMAP
C000
C000
C000
C000
C000
C000
C000
C000
C000
FF80
FF80
ENDCHAR
STARTCHAR M
ENCODING 77
SWIDTH 681 0
DWIDTH 12 0
BBX 10 11 0 0
BITMAP
C180
E180
E3C0
F3C0
F7C0
FFC0
DEC0
DCC0
C8C0
C0C0
C080
ENDCHAR
STARTCHAR N
ENCODING 78
SWIDTH 686 0
DWIDTH 12 0
BBX 10 11 0 0
BITMAP
E0C0
F0C0
F0C0
F8C0
DCC0
CCC0
C7C0
C7C0
C3C0
C1C0
C080
ENDCHAR
STARTCHAR O
ENCODING 79
SWIDTH 687 0
DWIDTH 12 0
BBX 10 11 0 0
BITMAP
7F80
FF80
C1C0
C0C0
C0C0
C0C0
C0C0
C0C0
C1C0
7F80
7F80
ENDCHAR
STARTCHAR P
ENCODING 80
SWIDTH 671 0
DWIDTH 12 0
BBX 9 11 0 0
BITMAP
FF80
FF80
C080
C180
FF80
FF00
C000
C000
C000
C000
C000
ENDCHAR
STARTCHAR Q
ENCODING 81
SWIDTH 669 0
DWIDTH 12 0
BBX 9 13 0 -2
BITMAP
7F00
FF80
C180
C180
C180
C180
C180
C580
CF80
7F80
7F00
0180
0180
ENDCHAR
STARTCHAR R
ENCODING 82
SWIDTH 666 0
DWIDTH 12 0
BBX 9 11 0 0
BITMAP
FF80
FF80
C080
C080
FF80
FF80
C180
C180
C180
C180
C180
ENDCHAR
STARTCHAR S
ENCODING 83
SWIDTH 666 0
DWIDTH 12 0
BBX 9 11 0 0
BITMAP
7F00
FF80
C180
C000
FF00
7F80
0180
0180
C180
FF80
7F00
ENDCHAR
STARTCHAR T
ENCODING 84
SWIDTH 635 0
DWIDTH 11 0
BBX 9 11 0 0
BITMAP
FF80
7F00
1C00
0C00
0C00
0C00
0C00
0C00
0C00
0C00
0800
ENDCHAR
STARTCHAR U
ENCODING 85
SWIDTH 650 0
DWIDTH 12 0
BBX 9 11 0 0
BITMAP
C180
C180
C180
C180
C180
C180
C180
C180
C180
FF80
7F00
ENDCHAR
STARTCHAR V
ENCODING 86
SWIDTH 645 0
DWIDTH 12 0
BBX 9 11 0 0
BITMAP
C180
C180
E180
6300
6300
3300
3600
3E00
1E00
1C00
0C00
ENDCHAR
STARTCHAR W
ENCODING 87
SWIDTH 671 0
DWIDTH 12 0
BBX 9 11 0 0
BITMAP
C180
C180
C980
CD80
FD80
7D80
7F80
7780
7380
7300
6300
ENDCHAR
STARTCHAR X
ENCODING 88
SWIDTH 634 0
DWIDTH 11 0
BBX 9 11 0 0
BITMAP
C180
E300
6700
3E00
1C00
1C00
3E00
3E00
6700
E380
C180
ENDCHAR
STARTCHAR Y
ENCODING 89
SWIDTH 625 0
DWIDTH 11 0
BBX 9 11 0 0
BITMAP
C180
E300
7700
3E00
1C00
1C00
0C00
0C00
0C00
0C00
0800
ENDCHAR
STARTCHAR Z
ENCODING 90
SWIDTH 647 0
DWIDTH 12 0
BBX 9 11 0 0
BITMAP
FF80
FF80
0300
0600
0C00
1C00
3800
3000
6000
FF80
FF80
ENDCHAR
STARTCHAR bracketleft
ENCODING 91
SWIDTH 406 0
DWIDTH 7 0
BBX 5 15 0 -2
BITMAP
38
70
60
C0
C0
C0
C0
C0
C0
C0
C0
C0
60
70
38
ENDCHAR
STARTCHAR backslash
ENCODING 92
SWIDTH 583 0
DWIDTH 11 0
BBX 8 14 0 -1
BITMAP
80
C0
C0
60
60
30
30
18
18
0C
0C
06
06
03
ENDCHAR
STARTCHAR bracketright
ENCODING 93
SWIDTH 426 0
DWIDTH 8 0
BBX 5 15 0 -2
BITMAP
E0
F0
38
18
18
18
18
18
18
18
18
18
30
70
E0
ENDCHAR
STARTCHAR asciicircum
ENCODING 94
SWIDTH 1374 0
DWIDTH 25 0
BBX 21 12 0 0
BITMAP
800280
93E2B8
100000
000000
000000
06B500
004080
000000
000000
000000
008C00
019A00
ENDCHAR
STARTCHAR underscore
ENCODING 95
SWIDTH 474 0
DWIDTH 9 0
BBX 8 2 -1 -2
BITMAP
FF
FE
ENDCHAR
STARTCHAR grave
ENCODING 96
SWIDTH 454 0
DWIDTH 8 0
BBX 5 2 0 12
BITMAP
F8
78
ENDCHAR
STARTCHAR a
ENCODING 97
SWIDTH 672 0
DWIDTH 12 0
BBX 10 8 0 0
BITMAP
7F80
FF80
0180
7F80
FFC0
C1C0
FFC0
7F80
ENDCHAR
STARTCHAR b
ENCODING 98
SWIDTH 669 0
DWIDTH 12 0
BBX 9 12 0 0
BITMAP
C000
C000
C000
C000
FF00
FF80
C180
C180
C180
C180
FF80
FF00
ENDCHAR
STARTCHAR c
ENCODING 99
SWIDTH 661 0
DWIDTH 12 0
BBX 9 8 0 0
BITMAP
7F80
FF80
C180
C000
C000
C180
FF80
7F00
ENDCHAR
STARTCHAR d
ENCODING 100
SWIDTH 664 0
DWIDTH 12 0
BBX 9 12 0 0
BITMAP
0080
0180
0180
0180
7F80
FF80
C180
C180
C180
E180
7F80
7F80
ENDCHAR
STARTCHAR e
ENCODING 101
SWIDTH 661 0
DWIDTH 12 0
BBX 9 8 0 0
BITMAP
7F80
E180
E180
FF80
F300
C080
FF80
7F00
ENDCHAR
STARTCHAR f
ENCODING 102
SWIDTH 614 0
DWIDTH 11 0
BBX 9 11 0 0
BITMAP
7F80
7000
6000
FE00
FE00
6000
6000
6000
6000
6000
6000
ENDCHAR
STARTCHAR g
ENCODING 103
SWIDTH 676 0
DWIDTH 12 0
BBX 10 12 0 -4
BITMAP
7F80
7FC0
C1C0
C0C0
C0C0
C1C0
7FC0
7FC0
01C0
E180
7F80
1C00
ENDCHAR
STARTCHAR h
ENCODING 104
SWIDTH 681 0
DWIDTH 12 0
BBX 10 11 0 0
BITMAP
C000
C000
C000
FF00
FF80
C1C0
C0C0
C0C0
C0C0
C0C0
C080
ENDCHAR
STARTCHAR i
ENCODING 105
SWIDTH 488 0
DWIDTH 9 0
BBX 6 11 0 0
BITMAP
30
30
00
70
30
30
30
30
30
78
FC
ENDCHAR
STARTCHAR j
ENCODING 106
SWIDTH 545 0
DWIDTH 10 0
BBX 7 16 0 -4
BITMAP
06
0E
06
00
1E
1E
06
06
06
06
06
06
C6
EE
FE
38
ENDCHAR
STARTCHAR k
ENCODING 107
SWIDTH 650 0
DWIDTH 12 0
BBX 9 11 0 0
BITMAP
C000
C000
C000
C180
C780
FE00
F800
F800
FE00
C780
C380
ENDCHAR
STARTCHAR l
ENCODING 108
SWIDTH 511 0
DWIDTH 9 0
BBX 7 11 0 0
BITMAP
70
30
30
30
30
30
30
30
30
78
FE
ENDCHAR
STARTCHAR m
ENCODING 109
SWIDTH 708 0
DWIDTH 13 0
BBX 10 8 0 0
BITMAP
FF80
FFC0
CCC0
CCC0
CCC0
CCC0
CCC0
CCC0
ENDCHAR
STARTCHAR n
ENCODING 110
SWIDTH 696 0
DWIDTH 13 0
BBX 10 8 0 0
BITMAP
FF80
FF80
C1C0
C0C0
C0C0
C0C0
C0C0
C080
ENDCHAR
STARTCHAR o
ENCODING 111
SWIDTH 671 0
DWIDTH 12 0
BBX 10 8 0 0
BITMAP
7F80
FF80
C180
C0C0
C080
C180
7F80
7F80
ENDCHAR
STARTCHAR p
ENCODING 112
SWIDTH 664 0
DWIDTH 12 0
BBX 9 11 0 -3
BITMAP
FF00
FF80
C180
C080
C080
C180
FF80
FF00
C000
C000
C000
ENDCHAR
STARTCHAR q
ENCODING 113
SWIDTH 664 0
DWIDTH 12 0
BBX 9 12 0 -4
BITMAP
7F80
FF80
C180
C180
C180
C180
FF80
7F80
0180
0180
0180
0080
ENDCHAR
STARTCHAR r
ENCODING 114
SWIDTH 604 0
DWIDTH 11 0
BBX 8 8 0 0
BITMAP
FF
FF
E1
C0
C0
C0
C0
C0
ENDCHAR
STARTCHAR s
ENCODING 115
SWIDTH 656 0
DWIDTH 12 0
BBX 9 8 0 0
BITMAP
7F00
FF80
C000
FF00
7F80
8180
FF80
7F00
ENDCHAR
STARTCHAR t
ENCODING 116
SWIDTH 654 0
DWIDTH 12 0
BBX 9 10 0 0
BITMAP
1000
3800
FF80
FF00
3800
3000
3000
3980
1F80
1F00
ENDCHAR
STARTCHAR u
ENCODING 117
SWIDTH 687 0
DWIDTH 12 0
BBX 10 8 0 0
BITMAP
C0C0
C0C0
C0C0
C0C0
C0C0
C1C0
FFC0
7FC0
ENDCHAR
STARTCHAR v
ENCODING 118
SWIDTH 635 0
DWIDTH 11 0
BBX 9 8 0 0
BITMAP
C180
E380
6300
7700
3E00
3E00
1C00
1800
ENDCHAR
STARTCHAR w
ENCODING 119
SWIDTH 677 0
DWIDTH 12 0
BBX 10 8 0 0
BITMAP
CCC0
CCC0
DD80
FF80
7F80
7780
7380
3300
ENDCHAR
STARTCHAR x
ENCODING 120
SWIDTH 644 0
DWIDTH 12 0
BBX 9 8 0 0
BITMAP
E180
F300
3F00
1E00
3E00
7F00
E380
C180
ENDCHAR
STARTCHAR y
ENCODING 121
SWIDTH 672 0
DWIDTH 12 0
BBX 9 12 0 -4
BITMAP
E180
6180
7180
3300
1F00
1F00
0E00
0E00
0C00
FC00
7800
2000
ENDCHAR
STARTCHAR z
ENCODING 122
SWIDTH 622 0
DWIDTH 11 0
BBX 8 8 0 0
BITMAP
FF
7F
0E
1C
38
70
FF
FF
ENDCHAR
STARTCHAR braceleft
ENCODING 123
SWIDTH 406 0
DWIDTH 7 0
BBX 5 15 0 -2
BITMAP
38
70
60
C0
C0
C0
C0
C0
C0
C0
C0
C0
60
70
38
ENDCHAR
STARTCHAR bar
ENCODING 124
SWIDTH 340 0
DWIDTH 6 0
BBX 2 13 1 -1
BITMAP
C0
C0
C0
C0
C0
C0
C0
C0
C0
C0
C0
C0
80
ENDCHAR
STARTCHAR braceright
ENCODING 125
SWIDTH 426 0
DWIDTH 8 0
BBX 5 15 0 -2
BITMAP
E0
F0
38
18
18
18
18
18
18
18
18
18
30
70
E0
ENDCHAR
STARTCHAR asciitilde
ENCODING 126
SWIDTH 1374 0
DWIDTH 25 0
BBX 21 12 0 0
BITMAP
800280
93E2B8
100000
000000
000000
06B500
004080
000000
000000
000000
008C00
019A00
ENDCHAR
STARTCHAR space.dup1
ENCODING 160
SWIDTH 585 0
DWIDTH 11 0
BBX 1 1 0 0
BITMAP
00
ENDCHAR
STARTCHAR exclamdown
ENCODING 161
SWIDTH 360 0
DWIDTH 7 0
BBX 3 12 1 0
BITMAP
40
E0
E0
00
40
C0
C0
E0
E0
E0
E0
E0
ENDCHAR
STARTCHAR cent
ENCODING 162
SWIDTH 656 0
DWIDTH 12 0
BBX 9 12 0 -2
BITMAP
0800
1C00
7F00
FF80
CD80
CC00
CC00
CC80
FF80
7F00
0C00
0800
ENDCHAR
STARTCHAR sterling
ENCODING 163
SWIDTH 679 0
DWIDTH 12 0
BBX 10 11 0 0
BITMAP
1F80
3F00
3000
3000
3800
FE00
3800
3000
3000
FF80
FFC0
ENDCHAR
STARTCHAR dieresis
ENCODING 168
SWIDTH 525 0
DWIDTH 9 0
BBX 7 3 0 12
BITMAP
C4
EE
44
ENDCHAR
STARTCHAR copyright
ENCODING 169
SWIDTH 672 0
DWIDTH 12 0
BBX 9 9 0 2
BITMAP
7F00
C180
DF80
B280
B080
B280
DE80
C180
7F00
ENDCHAR
STARTCHAR ordfeminine
ENCODING 170
SWIDTH 1039 0
DWIDTH 19 0
BBX 9 9 6 0
BITMAP
8000
6000
3000
3800
3E00
1F00
1F80
1000
3800
ENDCHAR
STARTCHAR hyphen.dup2
ENCODING 173
SWIDTH 662 0
DWIDTH 12 0
BBX 7 2 1 4
BITMAP
FE
FE
ENDCHAR
STARTCHAR registered
ENCODING 174
SWIDTH 1039 0
DWIDTH 19 0
BBX 9 9 6 0
BITMAP
8000
6000
3000
3800
3E00
1F00
1F80
1000
3800
ENDCHAR
STARTCHAR macron
ENCODING 175
SWIDTH 579 0
DWIDTH 10 0
BBX 8 2 0 9
BITMAP
FF
7E
ENDCHAR
STARTCHAR acute
ENCODING 180
SWIDTH 454 0
DWIDTH 8 0
BBX 5 2 0 12
BITMAP
F8
F8
ENDCHAR
STARTCHAR periodcentered
ENCODING 183
SWIDTH 343 0
DWIDTH 6 0
BBX 3 3 1 0
BITMAP
C0
E0
C0
ENDCHAR
STARTCHAR uni00B9
ENCODING 185
SWIDTH 1374 0
DWIDTH 25 0
BBX 21 12 0 0
BITMAP
800280
93E2B8
100000
000000
000000
06B500
004080
000000
000000
000000
008C00
019A00
ENDCHAR
STARTCHAR questiondown
ENCODING 191
SWIDTH 763 0
DWIDTH 14 0
BBX 9 11 1 0
BITMAP
1C00
1C00
0000
0800
1C00
7800
E000
C000
C180
FF80
7F00
ENDCHAR
STARTCHAR Agrave
ENCODING 192
SWIDTH 662 0
DWIDTH 12 0
BBX 9 14 0 0
BITMAP
7C00
7C00
0000
1C00
1C00
1E00
3E00
3700
3300
7F00
7F80
6380
C180
C080
ENDCHAR
STARTCHAR Aacute
ENCODING 193
SWIDTH 662 0
DWIDTH 12 0
BBX 9 14 0 0
BITMAP
1F00
1F00
0000
1C00
1C00
1E00
3E00
3700
3300
7F00
7F80
6380
C180
C080
ENDCHAR
STARTCHAR Acircumflex
ENCODING 194
SWIDTH 657 0
DWIDTH 12 0
BBX 9 14 0 0
BITMAP
1E00
3F00
0000
1C00
1C00
1E00
3E00
3700
3300
7F00
7F80
6380
C180
C080
ENDCHAR
STARTCHAR Atilde
ENCODING 195
SWIDTH 662 0
DWIDTH 12 0
BBX 9 15 0 0
BITMAP
1900
7F00
6600
0000
1C00
1C00
1E00
3E00
3700
3300
7F00
7F80
6380
C180
C080
ENDCHAR
STARTCHAR Adieresis
ENCODING 196
SWIDTH 662 0
DWIDTH 12 0
BBX 9 15 0 0
BITMAP
2200
7300
3300
0000
1C00
1C00
1E00
3E00
3700
3300
7F00
7F80
6380
C180
C080
ENDCHAR
STARTCHAR Aring
ENCODING 197
SWIDTH 662 0
DWIDTH 12 0
BBX 9 14 0 0
BITMAP
1C00
1600
1E00
1C00
1C00
1E00
3E00
3700
3300
7F00
7F80
6380
C180
C080
ENDCHAR
STARTCHAR AE
ENCODING 198
SWIDTH 906 0
DWIDTH 16 0
BBX 14 11 0 0
BITMAP
1FE0
1FE0
1E00
3E00
37F0
33F0
7F00
7F80
6380
C1FC
C0FC
ENDCHAR
STARTCHAR Ccedilla
ENCODING 199
SWIDTH 673 0
DWIDTH 12 0
BBX 10 15 0 -4
BITMAP
7F80
7F80
C1C0
C080
C000
C000
C000
C080
E180
7F80
7F80
0C00
0E00
1E00
0C00
ENDCHAR
STARTCHAR Egrave
ENCODING 200
SWIDTH 676 0
DWIDTH 12 0
BBX 9 14 0 0
BITMAP
3E00
3E00
0000
FF80
FF80
C000
C000
FE00
FF00
C000
C000
C000
FF80
FF80
ENDCHAR
STARTCHAR Eacute
ENCODING 201
SWIDTH 676 0
DWIDTH 12 0
BBX 9 14 0 0
BITMAP
1F00
1F00
0000
FF80
FF80
C000
C000
FE00
FF00
C000
C000
C000
FF80
FF80
ENDCHAR
STARTCHAR Ecircumflex
ENCODING 202
SWIDTH 676 0
DWIDTH 12 0
BBX 9 15 0 0
BITMAP
0C00
3E00
3300
0000
FF80
FF80
C000
C000
FE00
FF00
C000
C000
C000
FF80
FF80
ENDCHAR
STARTCHAR Edieresis
ENCODING 203
SWIDTH 676 0
DWIDTH 12 0
BBX 9 15 0 0
BITMAP
3300
3300
3300
0000
FF80
FF80
C000
C000
FE00
FF00
C000
C000
C000
FF80
FF80
ENDCHAR
STARTCHAR Igrave
ENCODING 204
SWIDTH 530 0
DWIDTH 10 0
BBX 7 14 0 0
BITMAP
F8
F8
00
FE
FE
18
18
18
18
18
10
18
FE
FE
ENDCHAR
STARTCHAR Iacute
ENCODING 205
SWIDTH 530 0
DWIDTH 10 0
BBX 7 14 0 0
BITMAP
3E
3C
00
FE
FE
18
18
18
18
18
10
18
FE
FE
ENDCHAR
STARTCHAR Icircumflex
ENCODING 206
SWIDTH 530 0
DWIDTH 10 0
BBX 7 15 0 0
BITMAP
38
7C
6E
00
FE
FE
18
18
18
18
18
10
18
FE
FE
ENDCHAR
STARTCHAR Idieresis
ENCODING 207
SWIDTH 530 0
DWIDTH 10 0
BBX 7 15 0 0
BITMAP
44
EE
C6
00
FE
FE
18
18
18
18
18
10
18
FE
FE
ENDCHAR
STARTCHAR Ntilde
ENCODING 209
SWIDTH 686 0
DWIDTH 12 0
BBX 10 15 0 0
BITMAP
1900
3F00
6600
0000
E0C0
F0C0
F0C0
F8C0
DCC0
CCC0
C7C0
C7C0
C3C0
C1C0
C080
ENDCHAR
STARTCHAR Ograve
ENCODING 210
SWIDTH 699 0
DWIDTH 13 0
BBX 10 14 0 0
BITMAP
3E00
3E00
0000
7F80
FF80
C1C0
C0C0
C0C0
C0C0
C0C0
C0C0
C1C0
7F80
7F80
ENDCHAR
STARTCHAR Oacute
ENCODING 211
SWIDTH 699 0
DWIDTH 13 0
BBX 10 14 0 0
BITMAP
1F00
1F00
0000
7F80
FF80
C1C0
C0C0
C0C0
C0C0
C0C0
C0C0
C1C0
7F80
7F80
ENDCHAR
STARTCHAR Ocircumflex
ENCODING 212
SWIDTH 699 0
DWIDTH 13 0
BBX 10 15 0 0
BITMAP
0C00
3E00
3300
0000
7F80
FF80
C1C0
C0C0
C0C0
C0C0
C0C0
C0C0
C1C0
7F80
7F80
ENDCHAR
STARTCHAR Otilde
ENCODING 213
SWIDTH 699 0
DWIDTH 13 0
BBX 10 15 0 0
BITMAP
1900
3F00
2600
0000
7F80
FF80
C1C0
C0C0
C0C0
C0C0
C0C0
C0C0
C1C0
7F80
7F80
ENDCHAR
STARTCHAR Odieresis
ENCODING 214
SWIDTH 699 0
DWIDTH 13 0
BBX 10 15 0 0
BITMAP
2300
7300
3300
0000
7F80
FF80
C1C0
C0C0
C0C0
C0C0
C0C0
C0C0
C1C0
7F80
7F80
ENDCHAR
STARTCHAR multiply
ENCODING 215
SWIDTH 683 0
DWIDTH 12 0
BBX 9 8 1 0
BITMAP
C380
F700
7E00
3C00
3E00
7E00
E380
C180
ENDCHAR
STARTCHAR Oslash
ENCODING 216
SWIDTH 699 0
DWIDTH 13 0
BBX 10 13 0 -1
BITMAP
0180
7F80
7F80
C7C0
C6C0
CCC0
CCC0
D8C0
D8C0
F1C0
7F80
7F80
6000
ENDCHAR
STARTCHAR Ugrave
ENCODING 217
SWIDTH 650 0
DWIDTH 12 0
BBX 9 14 0 0
BITMAP
7E00
3E00
0000
C180
C180
C180
C180
C180
C180
C180
C180
C180
FF80
7F00
ENDCHAR
STARTCHAR Uacute
ENCODING 218
SWIDTH 650 0
DWIDTH 12 0
BBX 9 14 0 0
BITMAP
1F00
1F00
0000
C180
C180
C180
C180
C180
C180
C180
C180
C180
FF80
7F00
ENDCHAR
STARTCHAR Ucircumflex
ENCODING 219
SWIDTH 650 0
DWIDTH 12 0
BBX 9 15 0 0
BITMAP
0C00
3E00
3700
0000
C180
C180
C180
C180
C180
C180
C180
C180
C180
FF80
7F00
ENDCHAR
STARTCHAR Udieresis
ENCODING 220
SWIDTH 654 0
DWIDTH 12 0
BBX 9 15 0 0
BITMAP
2200
7700
2300
0000
C180
C180
C180
C180
C180
C180
C180
C180
C180
FF80
7F00
ENDCHAR
STARTCHAR Yacute
ENCODING 221
SWIDTH 625 0
DWIDTH 11 0
BBX 9 14 0 0
BITMAP
1F00
1F00
0000
C180
E300
7700
3E00
1C00
1C00
0C00
0C00
0C00
0C00
0800
ENDCHAR
STARTCHAR germandbls
ENCODING 223
SWIDTH 652 0
DWIDTH 12 0
BBX 9 11 0 0
BITMAP
1F00
3F80
3180
3180
6700
6780
6180
6180
C180
CF80
CF00
ENDCHAR
STARTCHAR agrave
ENCODING 224
SWIDTH 652 0
DWIDTH 12 0
BBX 9 11 0 0
BITMAP
3F00
1F00
0000
7F00
FF80
0180
7F80
FF80
C180
FF80
7F80
ENDCHAR
STARTCHAR aacute
ENCODING 225
SWIDTH 652 0
DWIDTH 12 0
BBX 9 11 0 0
BITMAP
1F00
3E00
0000
7F00
FF80
0180
7F80
FF80
C180
FF80
7F80
ENDCHAR
STARTCHAR acircumflex
ENCODING 226
SWIDTH 652 0
DWIDTH 12 0
BBX 9 12 0 0
BITMAP
0C00
1E00
3300
0000
7F00
FF80
0180
7F80
FF80
C180
FF80
7F80
ENDCHAR
STARTCHAR atilde
ENCODING 227
SWIDTH 652 0
DWIDTH 12 0
BBX 9 12 0 0
BITMAP
1900
3F00
6600
0000
7F00
FF80
0180
7F80
FF80
C180
FF80
7F80
ENDCHAR
STARTCHAR adieresis
ENCODING 228
SWIDTH 666 0
DWIDTH 12 0
BBX 9 11 0 0
BITMAP
6380
6180
0000
7F00
FF80
0180
7F80
FF80
C180
FF80
7F80
ENDCHAR
STARTCHAR aring
ENCODING 229
SWIDTH 652 0
DWIDTH 12 0
BBX 9 13 0 0
BITMAP
1C00
1600
1600
1E00
0000
7F00
FF80
0180
7F80
FF80
C180
FF80
7F80
ENDCHAR
STARTCHAR ae
ENCODING 230
SWIDTH 1011 0
DWIDTH 18 0
BBX 16 8 0 0
BITMAP
7FFE
FFFE
0183
7FFE
FFCC
C182
FFFE
7EFC
ENDCHAR
STARTCHAR ccedilla
ENCODING 231
SWIDTH 661 0
DWIDTH 12 0
BBX 9 12 0 -4
BITMAP
7F80
FF80
C180
C000
C000
C180
FF80
7F00
0C00
0E00
1E00
0800
ENDCHAR
STARTCHAR egrave
ENCODING 232
SWIDTH 661 0
DWIDTH 12 0
BBX 9 11 0 0
BITMAP
3E00
3E00
0000
7F80
E180
E180
FF80
F300
C080
FF80
7F00
ENDCHAR
STARTCHAR eacute
ENCODING 233
SWIDTH 661 0
DWIDTH 12 0
BBX 9 11 0 0
BITMAP
1F80
1F00
0000
7F80
E180
E180
FF80
F300
C080
FF80
7F00
ENDCHAR
STARTCHAR ecircumflex
ENCODING 234
SWIDTH 661 0
DWIDTH 12 0
BBX 9 12 0 0
BITMAP
0C00
3E00
3300
0000
7F80
E180
E180
FF80
F300
C080
FF80
7F00
ENDCHAR
STARTCHAR edieresis
ENCODING 235
SWIDTH 661 0
DWIDTH 12 0
BBX 9 12 0 0
BITMAP
3100
3300
3300
0000
7F80
E180
E180
FF80
F300
C080
FF80
7F00
ENDCHAR
STARTCHAR igrave
ENCODING 236
SWIDTH 488 0
DWIDTH 9 0
BBX 6 11 0 0
BITMAP
F8
F8
00
70
30
30
30
30
30
78
FC
ENDCHAR
STARTCHAR iacute
ENCODING 237
SWIDTH 488 0
DWIDTH 9 0
BBX 7 11 0 0
BITMAP
7E
7C
00
70
30
30
30
30
30
78
FC
ENDCHAR
STARTCHAR icircumflex
ENCODING 238
SWIDTH 488 0
DWIDTH 9 0
BBX 6 12 0 0
BITMAP
30
78
CC
00
70
30
30
30
30
30
78
FC
ENDCHAR
STARTCHAR idieresis
ENCODING 239
SWIDTH 488 0
DWIDTH 9 0
BBX 7 12 -1 0
BITMAP
46
E6
66
00
38
18
18
18
18
18
3C
7E
ENDCHAR
STARTCHAR ntilde
ENCODING 241
SWIDTH 696 0
DWIDTH 13 0
BBX 10 12 0 0
BITMAP
1900
3F00
6600
0000
FF80
FF80
C1C0
C0C0
C0C0
C0C0
C0C0
C080
ENDCHAR
STARTCHAR ograve
ENCODING 242
SWIDTH 671 0
DWIDTH 12 0
BBX 10 12 0 0
BITMAP
3800
3E00
0E00
1C00
7F80
F380
C180
C0C0
C0C0
C180
7F80
7F00
ENDCHAR
STARTCHAR oacute
ENCODING 243
SWIDTH 671 0
DWIDTH 12 0
BBX 10 12 0 0
BITMAP
0700
1F00
0C00
1C00
7F80
F380
C180
C0C0
C0C0
C180
7F80
7F00
ENDCHAR
STARTCHAR ocircumflex
ENCODING 244
SWIDTH 671 0
DWIDTH 12 0
BBX 10 12 0 0
BITMAP
0C00
3F00
3300
1C00
7F80
F380
C180
C0C0
C0C0
C180
7F80
7F00
ENDCHAR
STARTCHAR otilde
ENCODING 245
SWIDTH 671 0
DWIDTH 12 0
BBX 10 12 0 0
BITMAP
3900
7F00
0600
1C00
7F80
F380
C180
C0C0
C0C0
C180
7F80
7F00
ENDCHAR
STARTCHAR odieresis
ENCODING 246
SWIDTH 676 0
DWIDTH 12 0
BBX 10 12 0 0
BITMAP
6180
7380
6180
1C00
7F80
F380
C180
C0C0
C0C0
C180
7F80
7F00
ENDCHAR
STARTCHAR oslash
ENCODING 248
SWIDTH 674 0
DWIDTH 12 0
BBX 10 11 0 -1
BITMAP
0100
1F00
7F80
E780
CFC0
CCC0
DCC0
D980
7F80
7F00
6000
ENDCHAR
STARTCHAR ugrave
ENCODING 249
SWIDTH 676 0
DWIDTH 12 0
BBX 10 11 0 0
BITMAP
3E00
3E00
0000
C080
C1C0
C1C0
C1C0
C1C0
E180
FF80
7F80
ENDCHAR
STARTCHAR uacute
ENCODING 250
SWIDTH 676 0
DWIDTH 12 0
BBX 10 11 0 0
BITMAP
1F00
1F00
0000
C080
C1C0
C1C0
C1C0
C1C0
E180
FF80
7F80
ENDCHAR
STARTCHAR ucircumflex
ENCODING 251
SWIDTH 676 0
DWIDTH 12 0
BBX 10 12 0 0
BITMAP
0C00
3E00
3300
0000
C080
C1C0
C1C0
C1C0
C1C0
E180
FF80
7F80
ENDCHAR
STARTCHAR udieresis
ENCODING 252
SWIDTH 674 0
DWIDTH 12 0
BBX 10 12 0 0
BITMAP
6100
6380
6180
0000
C080
C1C0
C1C0
C1C0
C1C0
E180
FF80
7F80
ENDCHAR
STARTCHAR yacute
ENCODING 253
SWIDTH 672 0
DWIDTH 12 0
BBX 9 15 0 -4
BITMAP
1F00
1F00
0000
E180
6180
7180
3300
1F00
1F00
0E00
0E00
0C00
FC00
7800
2000
ENDCHAR
STARTCHAR ydieresis
ENCODING 255
SWIDTH 672 0
DWIDTH 12 0
BBX 9 16 0 -4
BITMAP
3100
3380
3300
0000
E180
6180
7180
3300
1F00
1F00
0E00
0E00
0C00
FC00
7800
2000
ENDCHAR
STARTCHAR Cacute
ENCODING 262
SWIDTH 677 0
DWIDTH 12 0
BBX 10 14 0 0
BITMAP
1F00
1F00
0000
7F80
7F80
C1C0
C080
C000
C000
C000
C080
E1C0
7F80
7F80
ENDCHAR
STARTCHAR cacute
ENCODING 263
SWIDTH 666 0
DWIDTH 12 0
BBX 9 11 0 0
BITMAP
1F80
1F00
0000
7F80
FF80
C180
C000
C000
C180
FF80
7F00
ENDCHAR
STARTCHAR Ccaron
ENCODING 268
SWIDTH 677 0
DWIDTH 12 0
BBX 10 15 0 0
BITMAP
3300
1F00
0C00
0000
7F80
7F80
C1C0
C080
C000
C000
C000
C080
E1C0
7F80
7F80
ENDCHAR
STARTCHAR ccaron
ENCODING 269
SWIDTH 666 0
DWIDTH 12 0
BBX 9 12 0 0
BITMAP
3F00
1E00
0C00
0000
7F80
FF80
C180
C000
C000
C180
FF80
7F00
ENDCHAR
STARTCHAR Dcaron
ENCODING 270
SWIDTH 671 0
DWIDTH 12 0
BBX 9 15 0 0
BITMAP
3300
3E00
0C00
0000
FF00
FF80
C180
C180
C180
C180
C180
C180
C180
FF80
FF00
ENDCHAR
STARTCHAR dcaron
ENCODING 271
SWIDTH 731 0
DWIDTH 13 0
BBX 12 12 0 0
BITMAP
00B0
0190
0190
01A0
7F80
FF80
C180
C180
C180
E180
7F80
7F80
ENDCHAR
STARTCHAR Eogonek
ENCODING 280
SWIDTH 676 0
DWIDTH 12 0
BBX 9 14 0 -3
BITMAP
FF80
FF80
C000
C000
FE00
FF00
C000
C000
C000
FF80
FF80
0F00
0F80
0700
ENDCHAR
STARTCHAR eogonek
ENCODING 281
SWIDTH 661 0
DWIDTH 12 0
BBX 9 11 0 -3
BITMAP
7F80
E180
E180
FF80
F300
C080
FF80
7F00
0F00
0F80
0700
ENDCHAR
STARTCHAR Ecaron
ENCODING 282
SWIDTH 676 0
DWIDTH 12 0
BBX 9 15 0 0
BITMAP
3300
1F00
0C00
0000
FF80
FF80
C000
C000
FE00
FF00
C000
C000
C000
FF80
FF80
ENDCHAR
STARTCHAR ecaron
ENCODING 283
SWIDTH 661 0
DWIDTH 12 0
BBX 9 12 0 0
BITMAP
3B00
1E00
0C00
0000
7F80
E180
E180
FF80
F300
C080
FF80
7F00
ENDCHAR
STARTCHAR dotlessi
ENCODING 305
SWIDTH 488 0
DWIDTH 9 0
BBX 6 8 0 0
BITMAP
70
30
30
30
30
30
78
FC
ENDCHAR
STARTCHAR Lacute
ENCODING 313
SWIDTH 664 0
DWIDTH 12 0
BBX 9 14 0 0
BITMAP
F800
F800
0000
C000
C000
C000
C000
C000
C000
C000
C000
C000
FF80
FF80
ENDCHAR
STARTCHAR lacute
ENCODING 314
SWIDTH 511 0
DWIDTH 9 0
BBX 7 15 0 0
BITMAP
04
3E
3C
00
70
30
30
30
30
30
30
30
30
78
FE
ENDCHAR
STARTCHAR Lcaron
ENCODING 317
SWIDTH 664 0
DWIDTH 12 0
BBX 9 12 0 0
BITMAP
1800
D800
C800
D000
C000
C000
C000
C000
C000
C000
FF80
FF80
ENDCHAR
STARTCHAR lcaron
ENCODING 318
SWIDTH 511 0
DWIDTH 9 0
BBX 7 12 0 0
BITMAP
06
76
32
34
30
30
30
30
30
30
78
FE
ENDCHAR
STARTCHAR Nacute
ENCODING 323
SWIDTH 686 0
DWIDTH 12 0
BBX 10 14 0 0
BITMAP
1F00
1F00
0000
E0C0
F0C0
F0C0
F8C0
DCC0
CCC0
C7C0
C7C0
C3C0
C1C0
C080
ENDCHAR
STARTCHAR nacute
ENCODING 324
SWIDTH 696 0
DWIDTH 13 0
BBX 10 11 0 0
BITMAP
1F80
1F00
0000
FF80
FF80
C1C0
C0C0
C0C0
C0C0
C0C0
C080
ENDCHAR
STARTCHAR Ncaron
ENCODING 327
SWIDTH 686 0
DWIDTH 12 0
BBX 10 15 0 0
BITMAP
3300
1F00
0C00
0000
E0C0
F0C0
F0C0
F8C0
DCC0
CCC0
C7C0
C7C0
C3C0
C1C0
C080
ENDCHAR
STARTCHAR ncaron
ENCODING 328
SWIDTH 696 0
DWIDTH 13 0
BBX 10 12 0 0
BITMAP
3300
1E00
0C00
0000
FF80
FF80
C1C0
C0C0
C0C0
C0C0
C0C0
C080
ENDCHAR
STARTCHAR Ohungarumlaut
ENCODING 336
SWIDTH 699 0
DWIDTH 13 0
BBX 10 15 0 0
BITMAP
1B00
3B00
3300
0000
7F80
FF80
C1C0
C0C0
C0C0
C0C0
C0C0
C0C0
C1C0
7F80
7F80
ENDCHAR
STARTCHAR ohungarumlaut
ENCODING 337
SWIDTH 676 0
DWIDTH 12 0
BBX 10 12 0 0
BITMAP
1B00
3B00
1200
1C00
7F80
F380
C180
C0C0
C0C0
C180
7F80
7F00
ENDCHAR
STARTCHAR OE
ENCODING 338
SWIDTH 1063 0
DWIDTH 19 0
BBX 16 11 0 0
BITMAP
7FFF
7FFF
C180
C180
C1FC
C1FE
C180
C180
C180
7FFF
7FFF
ENDCHAR
STARTCHAR oe
ENCODING 339
SWIDTH 1043 0
DWIDTH 19 0
BBX 16 8 0 0
BITMAP
7FFE
FFC3
C1C3
C0FF
C0C0
C181
7FFF
7FFE
ENDCHAR
STARTCHAR Racute
ENCODING 340
SWIDTH 666 0
DWIDTH 12 0
BBX 9 14 0 0
BITMAP
1F00
1F00
0000
FF80
FF80
C080
C080
FF80
FF80
C180
C180
C180
C180
C180
ENDCHAR
STARTCHAR racute
ENCODING 341
SWIDTH 604 0
DWIDTH 11 0
BBX 8 11 0 0
BITMAP
1F
3F
00
FF
FF
E1
C0
C0
C0
C0
C0
ENDCHAR
STARTCHAR Rcaron
ENCODING 344
SWIDTH 666 0
DWIDTH 12 0
BBX 9 15 0 0
BITMAP
3300
3E00
0C00
0000
FF80
FF80
C080
C080
FF80
FF80
C180
C180
C180
C180
C180
ENDCHAR
STARTCHAR rcaron
ENCODING 345
SWIDTH 604 0
DWIDTH 11 0
BBX 8 12 0 0
BITMAP
66
3E
18
00
FF
FF
E1
C0
C0
C0
C0
C0
ENDCHAR
STARTCHAR Sacute
ENCODING 346
SWIDTH 666 0
DWIDTH 12 0
BBX 9 14 0 0
BITMAP
1F00
1F00
0000
7F00
FF80
C180
C000
FF00
7F80
0180
0180
C180
FF80
7F00
ENDCHAR
STARTCHAR sacute
ENCODING 347
SWIDTH 656 0
DWIDTH 12 0
BBX 9 11 0 0
BITMAP
1F80
1F00
0000
7F00
FF80
C000
FF00
7F80
8180
FF80
7F00
ENDCHAR
STARTCHAR Scaron
ENCODING 352
SWIDTH 666 0
DWIDTH 12 0
BBX 9 15 0 0
BITMAP
3300
3E00
0C00
0000
7F00
FF80
C180
C000
FF00
7F80
0180
0180
C180
FF80
7F00
ENDCHAR
STARTCHAR scaron
ENCODING 353
SWIDTH 656 0
DWIDTH 12 0
BBX 9 12 0 0
BITMAP
3300
3E00
0C00
0000
7F00
FF80
C000
FF00
7F80
8180
FF80
7F00
ENDCHAR
STARTCHAR Tcaron
ENCODING 356
SWIDTH 635 0
DWIDTH 11 0
BBX 9 15 0 0
BITMAP
3600
3E00
1C00
0000
FF80
7F00
1C00
0C00
0C00
0C00
0C00
0C00
0C00
0C00
0800
ENDCHAR
STARTCHAR tcaron
ENCODING 357
SWIDTH 654 0
DWIDTH 12 0
BBX 9 13 0 0
BITMAP
0600
0600
0200
1600
3800
FF80
FF00
3800
3000
3000
3980
1F80
1F00
ENDCHAR
STARTCHAR Uring
ENCODING 366
SWIDTH 650 0
DWIDTH 12 0
BBX 9 15 0 0
BITMAP
1C00
3400
1400
1C00
C180
C180
C180
C180
C180
C180
C180
C180
C180
FF80
7F00
ENDCHAR
STARTCHAR uring
ENCODING 367
SWIDTH 687 0
DWIDTH 12 0
BBX 10 13 0 0
BITMAP
1C00
1E00
1600
1E00
0000
C0C0
C0C0
C0C0
C0C0
C0C0
C1C0
FFC0
7FC0
ENDCHAR
STARTCHAR Uhungarumlaut
ENCODING 368
SWIDTH 654 0
DWIDTH 12 0
BBX 9 15 0 0
BITMAP
1B00
3B00
3300
0000
C180
C180
C180
C180
C180
C180
C180
C180
C180
FF80
7F00
ENDCHAR
STARTCHAR uhungarumlaut
ENCODING 369
SWIDTH 674 0
DWIDTH 12 0
BBX 10 12 0 0
BITMAP
1B00
3B00
3300
0000
C080
C1C0
C1C0
C1C0
C1C0
E180
FF80
7F80
ENDCHAR
STARTCHAR Ydieresis
ENCODING 376
SWIDTH 625 0
DWIDTH 11 0
BBX 9 15 0 0
BITMAP
2200
7700
6200
0000
C180
E300
7700
3E00
1C00
1C00
0C00
0C00
0C00
0C00
0800
ENDCHAR
STARTCHAR Zacute
ENCODING 377
SWIDTH 647 0
DWIDTH 12 0
BBX 9 14 0 0
BITMAP
1F00
1F00
0000
FF80
FF80
0300
0600
0C00
1C00
3800
3000
6000
FF80
FF80
ENDCHAR
STARTCHAR zacute
ENCODING 378
SWIDTH 622 0
DWIDTH 11 0
BBX 9 11 0 0
BITMAP
1F80
1F00
0000
FF00
7F00
0E00
1C00
3800
7000
FF00
FF00
ENDCHAR
STARTCHAR Zdotaccent
ENCODING 379
SWIDTH 647 0
DWIDTH 12 0
BBX 9 15 0 0
BITMAP
0800
1C00
0C00
0000
FF80
FF80
0300
0600
0C00
1C00
3800
3000
6000
FF80
FF80
ENDCHAR
STARTCHAR zdotaccent
ENCODING 380
SWIDTH 622 0
DWIDTH 11 0
BBX 8 12 0 0
BITMAP
08
1C
1C
00
FF
7F
0E
1C
38
70
FF
FF
ENDCHAR
STARTCHAR Zcaron
ENCODING 381
SWIDTH 647 0
DWIDTH 12 0
BBX 9 15 0 0
BITMAP
3300
3E00
0C00
0000
FF80
FF80
0300
0600
0C00
1C00
3800
3000
6000
FF80
FF80
ENDCHAR
STARTCHAR zcaron
ENCODING 382
SWIDTH 622 0
DWIDTH 11 0
BBX 8 12 0 0
BITMAP
37
3E
0C
00
FF
7F
0E
1C
38
70
FF
FF
ENDCHAR
STARTCHAR semicolon.dup3
ENCODING 894
SWIDTH 362 0
DWIDTH 7 0
BBX 3 11 1 -3
BITMAP
40
E0
E0
00
00
40
E0
E0
60
40
C0
ENDCHAR
STARTCHAR endash
ENCODING 8211
SWIDTH 662 0
DWIDTH 12 0
BBX 7 2 1 4
BITMAP
FE
FE
ENDCHAR
STARTCHAR emdash
ENCODING 8212
SWIDTH 756 0
DWIDTH 14 0
BBX 9 2 1 4
BITMAP
FF80
FF80
ENDCHAR
STARTCHAR quoteleft
ENCODING 8216
SWIDTH 260 0
DWIDTH 5 0
BBX 2 4 0 7
BITMAP
C0
C0
C0
C0
ENDCHAR
STARTCHAR quoteright
ENCODING 8217
SWIDTH 260 0
DWIDTH 5 0
BBX 2 5 0 6
BITMAP
C0
C0
C0
C0
C0
ENDCHAR
STARTCHAR quotesinglbase
ENCODING 8218
SWIDTH 281 0
DWIDTH 5 0
BBX 2 5 0 0
BITMAP
C0
C0
C0
C0
C0
ENDCHAR
STARTCHAR quotedblleft
ENCODING 8220
SWIDTH 402 0
DWIDTH 7 0
BBX 5 5 0 6
BITMAP
D8
D8
D8
D8
10
ENDCHAR
STARTCHAR quotedblright
ENCODING 8221
SWIDTH 406 0
DWIDTH 7 0
BBX 5 5 0 6
BITMAP
D8
D8
D8
D8
90
ENDCHAR
STARTCHAR quotedblbase
ENCODING 8222
SWIDTH 406 0
DWIDTH 7 0
BBX 5 5 0 0
BITMAP
D0
D8
D8
D8
D8
ENDCHAR
STARTCHAR bullet
ENCODING 8226
SWIDTH 391 0
DWIDTH 7 0
BBX 2 3 1 4
BITMAP
C0
C0
C0
ENDCHAR
STARTCHAR ellipsis
ENCODING 8230
SWIDTH 948 0
DWIDTH 17 0
BBX 13 3 1 0
BITMAP
4610
E738
E630
ENDCHAR
STARTCHAR fraction
ENCODING 8260
SWIDTH 583 0
DWIDTH 11 0
BBX 8 15 0 -2
BITMAP
03
03
06
06
0C
0C
18
18
30
30
60
60
C0
C0
80
ENDCHAR
STARTCHAR Euro
ENCODING 8364
SWIDTH 677 0
DWIDTH 12 0
BBX 10 11 0 0
BITMAP
7F80
7FC0
E000
FC00
FE00
E000
FE00
FC00
6080
7FC0
3F80
ENDCHAR
STARTCHAR trademark
ENCODING 8482
SWIDTH 1039 0
DWIDTH 19 0
BBX 9 9 6 0
BITMAP
8000
6000
3000
3800
3E00
1F00
1F80
1000
3800
ENDCHAR
STARTCHAR minus
ENCODING 8722
SWIDTH 662 0
DWIDTH 12 0
BBX 7 2 1 4
BITMAP
FE
FE
ENDCHAR
STARTCHAR fraction.dup4
ENCODING 8725
SWIDTH 583 0
DWIDTH 11 0
BBX 8 15 0 -2
BITMAP
03
03
06
06
0C
0C
18
18
30
30
60
60
C0
C0
80
ENDCHAR
STARTCHAR periodcentered.dup5
ENCODING 8729
SWIDTH 343 0
DWIDTH 6 0
BBX 3 3 1 0
BITMAP
C0
E0
C0
ENDCHAR
STARTCHAR infinity
ENCODING 8734
SWIDTH 796 0
DWIDTH 14 0
BBX 12 10 0 0
BITMAP
0100
33E0
7E60
EE30
C630
C630
C630
FE70
7FE0
03C0
ENDCHAR
STARTCHAR .notdef
ENCODING -1
SWIDTH 585 0
DWIDTH 11 0
BBX 1 1 0 0
BITMAP
00
ENDCHAR
STARTCHAR .null
ENCODING -1
SWIDTH 585 0
DWIDTH 11 0
BBX 1 1 0 0
BITMAP
00
ENDCHAR
STARTCHAR nonmarkingreturn
ENCODING -1
SWIDTH 585 0
DWIDTH 11 0
BBX 1 1 0 0
BITMAP
00
ENDCHAR
ENDFONT
